<svg xmlns="http://www.w3.org/2000/svg" width="352" height="50" viewBox="0 0 352 50" fill="none"><script xmlns=""/>
<rect width="351.082" height="50" fill="#FA94A6"/>
<path d="M2.75166 26.1469C2.58347 16.235 12.941 6.32311 25.168 0C38.2437 6.6649 47.9348 16.7477 47.5832 26.8305C47.2021 37.761 37.8678 44.0909 26.019 41.3565C20.4153 37.7677 19.17 30.5902 19.5662 29.7357C17.2681 34.6916 21.4891 39.1919 23.8098 41.3565C20.4153 42.7237 3.03324 42.7426 2.75166 26.1469Z" fill="white"/>
<path d="M9.90509 41.3667L9.88533 41.3565C5.62339 41.3565 -0.387606 45.3897 0.0196502 49.2177C-0.320332 50.2431 20.7361 50.2431 24.6421 42.7237C16.185 44.5961 11.5834 42.2298 9.90509 41.3667Z" fill="white"/>
<path d="M52 49.7304C41.9832 50.9266 29.5666 48.0214 28.3779 43.4073C35.0005 44.0909 39.0924 42.3819 40.281 41.1856C47.4151 42.211 52 46.4834 52 49.7304Z" fill="white"/>
<path d="M313.043 49.3686H302.278V6.57534C302.278 0.474877 313.043 0.474896 313.043 6.57534V49.3686Z" fill="white"/>
<path d="M245.58 14.9185V49.3684H257.781V14.9185H267.47C272.852 14.9185 272.852 4.87061 267.47 4.87061H235.891C230.508 4.87061 230.508 14.9185 235.891 14.9185H245.58Z" fill="white"/>
<path d="M162.326 48.6506L151.202 48.6054V18.1029C151.202 14.5144 159.814 12.0021 162.326 18.1027C164.838 14.514 171.8 11.4999 178.116 18.1027C180.986 13.4376 200.364 9.8492 200.364 26.7154V48.6506H189.599V26.7154C189.599 21.6915 181.345 21.7367 181.345 26.7606V48.6506H170.939L170.58 27.0743C170.58 22.0503 162.326 22.0503 162.326 27.0743V48.6506Z" fill="white"/>
<path d="M83.0192 10.074L88.5564 33.3993L94.298 10.074C96.0923 3.25577 105.986 2.89695 107.78 10.4327L113.163 49.1888H102.038L99.5264 25.1457L93.7848 45.2414C93.4259 46.318 92.3494 47.7534 88.7608 47.7534C85.1723 47.7534 84.0958 46.318 83.7369 45.2414L77.6364 25.1457L75.1244 49.1888H64L69.3828 10.4327C71.1771 2.89695 81.2249 3.25577 83.0192 10.074Z" fill="white"/>
<path d="M115.675 31.7845C115.675 18.2801 121.314 14.2007 131.464 14.2007C141.615 14.2007 147.254 18.2801 147.254 31.7845C147.254 45.2888 141.615 49.3683 131.464 49.3683C121.314 49.3683 115.675 45.2888 115.675 31.7845Z" fill="white"/>
<path d="M126.441 31.7849C126.441 25.4461 128.235 23.5312 131.465 23.5312C134.695 23.5312 136.489 25.4461 136.489 31.7849C136.489 38.1236 134.695 40.0385 131.465 40.0385C128.235 40.0385 126.441 38.1236 126.441 31.7849Z" fill="#FA94A6"/>
<path d="M204.671 31.7845C204.671 18.2801 210.31 14.2007 220.46 14.2007C230.611 14.2007 236.25 18.2801 236.25 31.7845C236.25 45.2888 230.611 49.3683 220.46 49.3683C210.31 49.3683 204.671 45.2888 204.671 31.7845Z" fill="white"/>
<path d="M215.436 31.7849C215.436 25.4461 217.23 23.5312 220.46 23.5312C223.69 23.5312 225.484 25.4461 225.484 31.7849C225.484 38.1236 223.69 40.0385 220.46 40.0385C217.23 40.0385 215.436 38.1236 215.436 31.7849Z" fill="#FA94A6"/>
<path d="M297.254 49.3686H289L288.642 46.4561C280.388 52.9154 267.828 50.7623 267.828 38.2025C267.828 28.1546 277.158 26.1324 286.847 28.1548C287.565 23.1309 280.428 23.3471 278.953 23.9793C277.158 24.697 275.005 25.6428 273.211 25.6428C269.622 25.6428 269.144 22.4129 269.622 20.6186C272.134 12.1372 297.254 12.8549 297.254 24.566L297.254 49.3686Z" fill="white"/>
<path d="M286.703 36.5204C283.473 35.6831 277.689 34.9536 279.311 40.3559C280.388 43.9443 290.54 37.5151 286.703 36.5204Z" fill="#FA94A6"/>
<path d="M328.115 49.3686H317.35V6.57534C317.35 0.474877 328.115 0.474896 328.115 6.57534L328.115 26.7609L339.375 15.9599C343.743 11.7009 350.778 18.9155 346.41 23.1745L338.163 31.0671L351.082 49.3686H339.598L331.345 37.5264L328.115 40.3973L328.115 49.3686Z" fill="white"/>
<script xmlns=""/></svg>