<svg xmlns="http://www.w3.org/2000/svg" width="272" height="260" viewBox="0 0 272 260" fill="none"><script xmlns=""/>
<path d="M14.3933 135.964C13.5136 84.422 67.6912 32.8802 131.648 0C200.044 34.6575 250.736 87.088 248.897 139.518C246.904 196.357 198.077 229.272 136.099 215.054C106.787 196.392 100.274 159.069 102.346 154.626C90.3255 180.397 112.404 203.798 124.544 215.054C106.787 222.163 15.8662 222.262 14.3933 135.964Z" fill="white"/>
<path d="M51.8113 215.107L51.7079 215.054C29.4146 215.054 -2.02748 236.026 0.102786 255.932C-1.67558 261.264 108.466 261.264 128.897 222.163C84.6601 231.9 60.5904 219.595 51.8113 215.107Z" fill="white"/>
<path d="M272 258.598C219.605 264.819 154.656 249.711 148.438 225.718C183.08 229.272 204.483 220.386 210.701 214.165C248.018 219.497 272 241.714 272 258.598Z" fill="white"/>
<script xmlns=""/></svg>